<?xml version="1.0" encoding="utf-8"?>

<!-- License Agreement at http://iconmonstr.com/license/ -->

<!DOCTYPE svg PUBLIC "-//W3C//DTD SVG 1.1//EN" "http://www.w3.org/Graphics/SVG/1.1/DTD/svg11.dtd">
<svg version="1.1" xmlns="http://www.w3.org/2000/svg" xmlns:xlink="http://www.w3.org/1999/xlink" x="0px" y="0px"
	 width="512px" height="512px" viewBox="0 0 512 512" style="enable-background:new 0 0 512 512;" xml:space="preserve">
<path id="id-card-11-icon" d="M384.209,238.25c-42.963,0-77.793,34.828-77.793,77.791c0,42.964,34.83,77.791,77.793,77.791
	S462,359.005,462,316.041C462,273.078,427.172,238.25,384.209,238.25z M432.018,330.176h-33.673v33.673h-26.006v-33.673h-33.673
	v-26.005h33.673v-33.672h26.006v33.672h33.673V330.176z M304.677,243.287c-7.604,8.295-13.773,17.585-18.387,27.567h-20.966v-27.567
	H304.677z M309.598,393.832H50V118.168h378.578v99.581c-11.505-5.199-23.908-8.341-36.756-9.231v-53.595H86.754v202.154h197.719
	c5.35,13.002,13.274,24.943,23.516,35.185C308.52,392.793,309.058,393.313,309.598,393.832z M265.324,191.219h90.662v20.749
	c-6.332,1.706-12.478,3.987-18.373,6.817h-72.289V191.219z M170.301,265.296c-26.463-48.737-7.545-76.366,20.875-76.366
	c27.867,0,47.264,26.609,20.871,76.366c-8.668,16.345,9.234,20.229,28.467,24.667c19.223,4.433,17.746,14.568,17.746,32.96H124.09
	c0-18.392-1.479-28.527,17.746-32.96C160.656,285.62,179.23,281.74,170.301,265.296z"/>
</svg>
