<?xml version="1.0" encoding="utf-8"?>

<!-- License Agreement at http://iconmonstr.com/license/ -->

<!DOCTYPE svg PUBLIC "-//W3C//DTD SVG 1.1//EN" "http://www.w3.org/Graphics/SVG/1.1/DTD/svg11.dtd">
<svg version="1.1" xmlns="http://www.w3.org/2000/svg" xmlns:xlink="http://www.w3.org/1999/xlink" x="0px" y="0px"
	 width="512px" height="512px" viewBox="0 0 512 512" style="enable-background:new 0 0 512 512;" xml:space="preserve">
<path id="sitemap-5-icon" d="M130,382v50H80v-50H130z M160,352H50v110h110V352z M281,382v50h-50v-50H281z M311,352H201v110h110V352z
	 M432,382v50h-50v-50H432z M462,352H352v110h110V352z M306,80v60H206V80H306z M336,50H176v120h160V50z M271,242v-47h-30v47H90
	v84.917h30V272h272v54.917h30V242H271z"/>
</svg>
