<?xml version="1.0" encoding="utf-8"?>

<!-- License Agreement at http://iconmonstr.com/license/ -->

<!DOCTYPE svg PUBLIC "-//W3C//DTD SVG 1.1//EN" "http://www.w3.org/Graphics/SVG/1.1/DTD/svg11.dtd">
<svg version="1.1" xmlns="http://www.w3.org/2000/svg" xmlns:xlink="http://www.w3.org/1999/xlink" x="0px" y="0px"
	 width="512px" height="512px" viewBox="0 0 512 512" style="enable-background:new 0 0 512 512;" xml:space="preserve">
<path id="brick-8-icon" d="M140.284,148.759h-0.234v16.446c-0.604,27.711,75.615,27.77,74.693,0v-16.421
	C212.53,122.548,142.204,122.414,140.284,148.759z M201.139,151.29c0,5.398-10.536,9.799-23.521,9.799
	c-12.967,0-23.512-4.401-23.512-9.799s10.545-9.799,23.512-9.799C190.603,141.491,201.139,145.892,201.139,151.29z M58.583,154.35
	l0.151,0.084l-0.151-0.319L256,50l197.417,105.431v89.798l-188.833,99.539v-91.165l169.336-89.094l-177.971-94.71L78.6,163.419
	l168.817,89.773V344.7L58.583,244.139V154.35z M453.417,264.81v99.79L264.584,462v-97.669L453.417,264.81z M218.364,206.948
	c-0.604,27.72,75.624,27.778,74.685,0v-16.429c-2.213-26.228-72.53-26.37-74.45-0.017h-0.234V206.948z M255.933,183.243
	c12.968,0,23.521,4.384,23.521,9.791c0,5.398-10.553,9.782-23.521,9.782c-12.967,0-23.521-4.384-23.521-9.782
	C232.412,187.627,242.966,183.243,255.933,183.243z M293.049,125.666v-16.413c-2.246-26.219-72.53-26.354-74.45-0.017h-0.234v16.429
	C217.761,153.402,294.021,153.453,293.049,125.666z M255.949,101.969c12.951,0,23.521,4.401,23.521,9.799
	c0,5.39-10.57,9.799-23.521,9.799c-12.983,0-23.52-4.409-23.52-9.799C232.43,106.37,242.966,101.969,255.949,101.969z
	 M371.171,165.205v-16.421c-2.229-26.228-72.539-26.37-74.434-0.017h-0.251v16.438C295.865,192.924,372.109,192.983,371.171,165.205
	z M310.535,151.298c0-5.398,10.544-9.79,23.52-9.79s23.537,4.392,23.537,9.79c0,5.398-10.562,9.791-23.537,9.791
	S310.535,156.697,310.535,151.298z M247.417,364.297V462L58.583,364.6V263.754L247.417,364.297z"/>
</svg>
